<svg width="17" height="20" viewBox="0 0 17 20" xmlns="http://www.w3.org/2000/svg">
<g clip-path="url(#clip0)">
<path fill-rule="evenodd" clip-rule="evenodd" d="M13.9111 7.53422C13.9111 4.13614 12.0794 1.77766 9.70946 1.06962C9.62362 0.84246 9.48803 0.631284 9.30366 0.454088C8.67374 -0.151362 7.69224 -0.151362 7.06235 0.454088C6.8784 0.630895 6.74296 0.841531 6.65712 1.06812C4.28409 1.77308 2.4549 4.1264 2.4549 7.53422C2.4549 9.73915 2.02037 10.9747 1.21596 11.87C1.08147 12.0198 0.717089 12.3627 0.470258 12.595H0.470238H0.470233L0.470113 12.595C0.353395 12.7049 0.262986 12.79 0.235642 12.8181L0 13.0627V15.9174H4.98179C5.15025 16.8064 5.6218 17.4013 6.47455 17.9336C7.52357 18.5885 8.84247 18.5885 9.89145 17.9336C10.644 17.4638 11.1486 16.7418 11.3533 15.9174H16.366V13.0627L16.1303 12.8181C16.1055 12.7924 16.0188 12.7106 15.9053 12.6035C15.6592 12.3713 15.2877 12.0206 15.1512 11.868C14.3462 10.9685 13.9111 9.73137 13.9111 7.53422ZM9.60414 15.9174H6.69257C6.80818 16.1374 7.00523 16.3036 7.32708 16.5045C7.85263 16.8325 8.51335 16.8325 9.03894 16.5045C9.2823 16.3525 9.47248 16.1514 9.60414 15.9174ZM13.944 12.9985C14.1162 13.191 14.4852 13.5427 14.7294 13.7725V14.2431H1.6366V13.7729C1.87887 13.5458 2.24904 13.1943 2.42093 13.003C3.51396 11.7864 4.0915 10.1442 4.0915 7.53422C4.0915 4.36976 6.00041 2.52177 8.183 2.52177C10.3594 2.52177 12.2745 4.3793 12.2745 7.53422C12.2745 10.1359 12.8522 11.7785 13.944 12.9985Z" />
</g>
<defs>
<clipPath id="clip0">
<rect width="16.366" height="19.2541" fill="white"/>
</clipPath>
</defs>
</svg>
