<svg width="19" height="19" viewBox="0 0 19 19" fill="none" xmlns="http://www.w3.org/2000/svg">
<ellipse cx="9.43164" cy="9.49998" rx="9.43164" ry="9.49998" fill="#F8DE63"/>
<path d="M17.7014 9.49998C17.7014 14.1129 13.991 17.8381 9.43164 17.8381C4.87227 17.8381 1.16187 14.1129 1.16187 9.49998C1.16187 4.88705 4.87227 1.16187 9.43164 1.16187C13.991 1.16187 17.7014 4.88705 17.7014 9.49998Z" stroke="#F4921F" stroke-opacity="0.64" stroke-width="2.32374"/>
<path d="M10.9998 5.17303C11.1753 4.97469 11.502 5.11677 11.4767 5.38038L11.2051 8.20048C11.1938 8.31837 11.2596 8.43017 11.3682 8.47739L13.9664 9.60711C14.2093 9.71271 14.1751 10.0674 13.9165 10.1247L11.1506 10.7379C11.0349 10.7636 10.949 10.8607 10.9376 10.9786L10.6661 13.7987C10.6407 14.0623 10.2928 14.1394 10.1584 13.9113L8.72046 11.4701C8.66035 11.3681 8.54136 11.3164 8.42574 11.342L5.65975 11.9552C5.4012 12.0125 5.22035 11.7055 5.39583 11.5072L7.27313 9.38525C7.3516 9.29655 7.36404 9.1674 7.30393 9.06535L5.866 6.62424C5.73159 6.39605 5.9677 6.12918 6.21056 6.23478L8.80873 7.36449C8.91734 7.41172 9.04401 7.38364 9.12249 7.29493L10.9998 5.17303Z" fill="#EEC24E"/>
</svg>
