<svg width="24" height="23" viewBox="0 0 24 23" fill="none" xmlns="http://www.w3.org/2000/svg">
<path fill-rule="evenodd" clip-rule="evenodd" d="M19.2 4.14567V1.70985H21.6C22.9255 1.70985 21.7543 1.70984 24 1.70984V7.7994C24 12.0864 21.8462 15.1069 18 15.1069V12.671C20.3225 12.671 21.6 10.8795 21.6 7.7994V4.14567H19.2Z" fill="url(#paint0_linear)"/>
<path fill-rule="evenodd" clip-rule="evenodd" d="M4.8 1.70985V4.14567H2.4V7.79941C2.4 10.8795 3.67749 12.6711 6 12.6711V15.1069C2.15379 15.1069 0 12.0864 0 7.79941V1.70985C1.54286 1.70983 1.07452 1.70985 2.4 1.70985H4.8Z" fill="url(#paint1_linear)"/>
<path fill-rule="evenodd" clip-rule="evenodd" d="M13.3029 18.6743V19.2593C13.3029 19.5933 13.5633 19.8694 13.8967 19.8889L15.4286 19.9786C16.7541 19.9786 16.9029 21.0691 16.9029 22.4144H7.30288C7.30288 21.0691 7.31454 19.9786 8.64003 19.9786L10.3069 19.8869C10.6412 19.8685 10.9029 19.5921 10.9029 19.2572V18.6743C6.83213 18.0834 3.70288 14.5302 3.70288 10.2353L3.39431 0.492026C5.86288 0.492001 4.7774 0.492017 6.10288 0.492017H18.1029C19.4284 0.492017 18.1029 0.491988 20.5029 0.492018V10.2353C20.5029 14.5302 17.3736 18.0834 13.3029 18.6743Z" fill="url(#paint2_angular)"/>
<path d="M15.66 8.79118C15.66 10.9186 13.9622 12.6334 11.88 12.6334C9.79771 12.6334 8.09998 10.9186 8.09998 8.79118C8.09998 6.6638 9.79771 4.94901 11.88 4.94901C13.9622 4.94901 15.66 6.6638 15.66 8.79118Z" fill="#FFF0A0" stroke="#FFDA7A" stroke-width="0.771429"/>
<rect x="9.14456" y="20.6542" width="5.83358" height="1.28014" rx="0.64007" fill="#FFDE8A"/>
<path d="M12.4132 11.1896V7.5849H11.6634C11.6023 7.95149 11.219 8.25697 10.6803 8.26253V8.84573H11.5412V11.1896H12.4132Z" fill="#FFDA7A"/>
<path d="M5.55919 8.1232C5.57889 8.1054 5.61038 8.11963 5.61052 8.1464L5.6135 8.69509C5.61356 8.70606 5.61938 8.71623 5.62879 8.72182L6.09594 8.99905C6.11873 9.01257 6.11536 9.04673 6.0904 9.05512L5.57613 9.2279C5.56593 9.23132 5.55829 9.23991 5.55601 9.25052L5.44053 9.78734C5.43493 9.81339 5.40139 9.82035 5.38572 9.79871L5.06564 9.35672C5.05916 9.34777 5.04847 9.34294 5.03758 9.34404L4.49976 9.39837C4.47343 9.40103 4.45609 9.37108 4.47142 9.34942L4.78722 8.90312C4.79346 8.8943 4.79463 8.88279 4.79031 8.8728L4.57271 8.36931C4.56215 8.34488 4.58491 8.31948 4.61006 8.32762L5.12564 8.49445C5.13603 8.49781 5.14736 8.4954 5.15544 8.4881L5.55919 8.1232Z" fill="#FFF0A0"/>
<path d="M5.55919 10.3155C5.57889 10.2977 5.61038 10.3119 5.61052 10.3387L5.6135 10.8873C5.61356 10.8983 5.61938 10.9085 5.62879 10.9141L6.09594 11.1913C6.11873 11.2048 6.11536 11.239 6.0904 11.2474L5.57613 11.4202C5.56593 11.4236 5.55829 11.4322 5.55601 11.4428L5.44053 11.9796C5.43493 12.0057 5.40139 12.0126 5.38572 11.991L5.06564 11.549C5.05916 11.54 5.04847 11.5352 5.03758 11.5363L4.49976 11.5906C4.47343 11.5933 4.45609 11.5633 4.47142 11.5417L4.78722 11.0954C4.79346 11.0866 4.79463 11.0751 4.79031 11.0651L4.57271 10.5616C4.56215 10.5371 4.58491 10.5117 4.61006 10.5199L5.12564 10.6867C5.13603 10.6901 5.14736 10.6877 5.15544 10.6804L5.55919 10.3155Z" fill="#FFF0A0"/>
<path d="M18.7424 8.14646C18.7426 8.11969 18.7741 8.10546 18.7938 8.12326L19.1975 8.48816C19.2056 8.49546 19.2169 8.49787 19.2273 8.49451L19.7429 8.32768C19.768 8.31954 19.7908 8.34494 19.7802 8.36937L19.5626 8.87286C19.5583 8.88285 19.5595 8.89436 19.5657 8.90318L19.8815 9.34948C19.8969 9.37114 19.8795 9.40109 19.8532 9.39843L19.3154 9.3441C19.3045 9.343 19.2938 9.34783 19.2873 9.35678L18.9672 9.79877C18.9516 9.82041 18.918 9.81345 18.9124 9.7874L18.7969 9.25058C18.7947 9.23997 18.787 9.23138 18.7768 9.22795L18.2626 9.05518C18.2376 9.04679 18.2342 9.01263 18.257 8.99911L18.7242 8.72188C18.7336 8.71629 18.7394 8.70612 18.7395 8.69515L18.7424 8.14646Z" fill="#FFF0A0"/>
<path d="M18.7424 10.3387C18.7426 10.3119 18.7741 10.2977 18.7938 10.3155L19.1975 10.6804C19.2056 10.6877 19.2169 10.6901 19.2273 10.6867L19.7429 10.5199C19.768 10.5117 19.7908 10.5371 19.7802 10.5616L19.5626 11.0651C19.5583 11.0751 19.5595 11.0866 19.5657 11.0954L19.8815 11.5417C19.8969 11.5633 19.8795 11.5933 19.8532 11.5906L19.3154 11.5363C19.3045 11.5352 19.2938 11.54 19.2873 11.549L18.9672 11.991C18.9516 12.0126 18.918 12.0057 18.9124 11.9796L18.7969 11.4428C18.7947 11.4322 18.787 11.4236 18.7768 11.4202L18.2626 11.2474C18.2376 11.239 18.2342 11.2048 18.257 11.1913L18.7242 10.9141C18.7336 10.9085 18.7394 10.8983 18.7395 10.8873L18.7424 10.3387Z" fill="#FFF0A0"/>
<path d="M18.1253 12.2177C18.1255 12.1909 18.157 12.1767 18.1767 12.1945L18.5804 12.5594C18.5885 12.5667 18.5998 12.5691 18.6102 12.5657L19.1258 12.3989C19.151 12.3908 19.1737 12.4162 19.1632 12.4406L18.9455 12.9441C18.9412 12.9541 18.9424 12.9656 18.9486 12.9744L19.2644 13.4207C19.2798 13.4424 19.2624 13.4723 19.2361 13.4697L18.6983 13.4153C18.6874 13.4142 18.6767 13.4191 18.6702 13.428L18.3501 13.87C18.3345 13.8916 18.3009 13.8847 18.2953 13.8586L18.1799 13.3218C18.1776 13.3112 18.1699 13.3026 18.1597 13.2992L17.6455 13.1264C17.6205 13.118 17.6171 13.0839 17.6399 13.0703L18.1071 12.7931C18.1165 12.7875 18.1223 12.7773 18.1224 12.7664L18.1253 12.2177Z" fill="#FFF0A0"/>
<path d="M6.17635 12.1945C6.19605 12.1767 6.22754 12.1909 6.22768 12.2177L6.23066 12.7664C6.23072 12.7774 6.23654 12.7875 6.24595 12.7931L6.7131 13.0703C6.73589 13.0839 6.73251 13.118 6.70756 13.1264L6.19329 13.2992C6.18309 13.3026 6.17545 13.3112 6.17317 13.3218L6.05769 13.8586C6.05208 13.8847 6.01855 13.8916 6.00288 13.87L5.68279 13.428C5.67631 13.4191 5.66562 13.4142 5.65473 13.4153L5.11692 13.4697C5.09059 13.4723 5.07325 13.4424 5.08857 13.4207L5.40437 12.9744C5.41061 12.9656 5.41179 12.9541 5.40747 12.9441L5.18987 12.4406C5.17931 12.4162 5.20207 12.3908 5.22722 12.3989L5.74279 12.5657C5.75318 12.5691 5.76452 12.5667 5.7726 12.5594L6.17635 12.1945Z" fill="#FFF0A0"/>
<defs>
<linearGradient id="paint0_linear" x1="19.5943" y1="6.59888" x2="25.3029" y2="6.59888" gradientUnits="userSpaceOnUse">
<stop stop-color="#F6B938"/>
<stop offset="1" stop-color="#FF976A"/>
<stop offset="1" stop-color="#FFCE67"/>
</linearGradient>
<linearGradient id="paint1_linear" x1="-1.69714" y1="6.2857" x2="3.70299" y2="6.13367" gradientUnits="userSpaceOnUse">
<stop stop-color="#EE6A32"/>
<stop offset="1" stop-color="#FFCE67"/>
</linearGradient>
<radialGradient id="paint2_angular" cx="0" cy="0" r="1" gradientUnits="userSpaceOnUse" gradientTransform="translate(12.0343 -3.57933) rotate(-90) scale(0.939531 0.393168)">
<stop stop-color="#FF5C00"/>
<stop offset="0.505404" stop-color="#FFD159"/>
<stop offset="1" stop-color="#F79400"/>
</radialGradient>
</defs>
</svg>
