<svg width="67" height="62" viewBox="0 0 67 62" fill="none" xmlns="http://www.w3.org/2000/svg">
<path d="M34.0341 60.87L50.4361 21.5052H15.9919L34.0341 60.87Z" fill="url(#paint0_linear)"/>
<path d="M33.6241 61.2801L66.4281 21.5053H50.0261L33.6241 61.2801Z" fill="url(#paint1_linear)"/>
<path d="M34.0341 60.87L-3.89117e-05 21.5052H16.4738L34.0341 60.87Z" fill="url(#paint2_linear)"/>
<path d="M18.4522 0.410019L33.6241 21.5053H16.402L18.4522 0.410019Z" fill="url(#paint3_linear)"/>
<path d="M1.34387e-05 21.5052H16.402L18.4523 0.409967L1.34387e-05 21.5052Z" fill="url(#paint4_linear)"/>
<path d="M66.4281 21.7104H50.0261L48.3859 1.34542e-05L66.4281 21.7104Z" fill="url(#paint5_linear)"/>
<path d="M48.3859 0.410019L50.3144 21.7103L32.804 21.5053L48.3859 0.410019Z" fill="url(#paint6_linear)"/>
<path d="M33.2142 21.3227L48.386 0.30853H18.2625L33.2142 21.3227Z" fill="url(#paint7_linear)"/>
<defs>
<linearGradient id="paint0_linear" x1="32.8039" y1="60.87" x2="32.8039" y2="21.5052" gradientUnits="userSpaceOnUse">
<stop stop-color="#F82332"/>
<stop offset="1" stop-color="#FEA451"/>
</linearGradient>
<linearGradient id="paint1_linear" x1="20.0668" y1="139.776" x2="56.7407" y2="11.0713" gradientUnits="userSpaceOnUse">
<stop stop-color="#F82332"/>
<stop offset="1" stop-color="#F7814E"/>
</linearGradient>
<linearGradient id="paint2_linear" x1="17.2221" y1="61.6901" x2="8.61101" y2="13.3042" gradientUnits="userSpaceOnUse">
<stop stop-color="#F82332"/>
<stop offset="1" stop-color="#FF814B"/>
</linearGradient>
<linearGradient id="paint3_linear" x1="-3.4598" y1="8.30353" x2="26.3595" y2="-3.29265" gradientUnits="userSpaceOnUse">
<stop stop-color="#F82332"/>
<stop offset="1" stop-color="#EEC52F"/>
</linearGradient>
<linearGradient id="paint4_linear" x1="6.97086" y1="28.6128" x2="8.17773" y2="0.181651" gradientUnits="userSpaceOnUse">
<stop stop-color="#F82332"/>
<stop offset="1" stop-color="#FEB11B"/>
</linearGradient>
<linearGradient id="paint5_linear" x1="59.5085" y1="28.3704" x2="51.897" y2="-2.07584" gradientUnits="userSpaceOnUse">
<stop stop-color="#EF1E2C"/>
<stop offset="1" stop-color="#FBB93B"/>
</linearGradient>
<linearGradient id="paint6_linear" x1="74.0397" y1="8.99549" x2="26.9864" y2="-1.38391" gradientUnits="userSpaceOnUse">
<stop stop-color="#F82332"/>
<stop offset="1" stop-color="#FFD80A"/>
</linearGradient>
<linearGradient id="paint7_linear" x1="-1.3839" y1="6.22765" x2="65.6295" y2="-23.2654" gradientUnits="userSpaceOnUse">
<stop stop-color="#F9D61A"/>
<stop offset="1" stop-color="#F7441D"/>
</linearGradient>
</defs>
</svg>
