<svg width="18" height="23" viewBox="0 0 18 23" xmlns="http://www.w3.org/2000/svg">
<path fill-rule="evenodd" clip-rule="evenodd" d="M9 22.3276L9.6577 21.7533C15.1887 16.9237 18 12.7068 18 9C18 3.75066 13.9029 0 9 0C4.09705 0 0 3.75066 0 9C0 12.7068 2.81131 16.9237 8.3423 21.7533L9 22.3276ZM9 19.6634C4.30661 15.4335 2 11.8492 2 9C2 4.8966 5.16411 2 9 2C12.8359 2 16 4.8966 16 9C16 11.8492 13.6934 15.4335 9 19.6634ZM10 12H8C8 10.2984 8.6246 9.5697 10.0528 8.85557C10.8746 8.44468 11 8.29835 11 7.5C11 6.55641 10.2772 6 9 6C7.8954 6 7 6.89543 7 8H5C5 5.79086 6.79086 4 9 4C11.2843 4 13 5.32063 13 7.5C13 9.2016 12.3754 9.9303 10.9472 10.6444C10.1254 11.0553 10 11.2016 10 12ZM10.0007 13.9983C10.0007 14.5506 9.5528 14.9983 9.0003 14.9983C8.4479 14.9983 8 14.5506 8 13.9983C8 13.4461 8.4479 12.9983 9.0003 12.9983C9.5528 12.9983 10.0007 13.4461 10.0007 13.9983Z" />
</svg>
