<svg width="22" height="28" viewBox="0 0 22 28" fill="none" xmlns="http://www.w3.org/2000/svg">
<path d="M10.3598 27.0187L0.567911 22.5725C0.222077 22.4155 0 22.0707 0 21.6909V4.77924H21.5202V21.6909C21.5202 22.0707 21.2981 22.4155 20.9523 22.5725L11.1604 27.0187C10.906 27.1342 10.6142 27.1342 10.3598 27.0187Z" fill="url(#paint0_linear)"/>
<path d="M0 1.56543V4.77921H21.5202V1.56543C21.5202 1.14953 21.183 0.812378 20.7671 0.812378H0.753053C0.337153 0.812378 0 1.14953 0 1.56543Z" fill="url(#paint1_linear)"/>
<rect x="3.04706" y="2.01965" width="15.0451" height="2.06965" rx="0.761776" fill="url(#paint2_linear)"/>
<path d="M18.1009 7.0213H3.41925C3.00335 7.0213 2.6662 7.35846 2.6662 7.77436V20.2864C2.6662 20.6585 2.87952 20.9978 3.21495 21.159L10.3406 24.5842C10.6057 24.7116 10.9144 24.7116 11.1795 24.5842L18.3052 21.159C18.6406 20.9978 18.8539 20.6585 18.8539 20.2864V7.77435C18.8539 7.35845 18.5168 7.0213 18.1009 7.0213Z" fill="url(#paint3_linear)"/>
<path d="M6.95779 10.2534C7.03568 10.0363 7.3427 10.0363 7.42059 10.2534L7.88971 11.561C7.92476 11.6587 8.01735 11.7238 8.12112 11.7238H9.58322C9.82723 11.7238 9.92219 12.0409 9.71835 12.175L8.57878 12.9248C8.48396 12.9872 8.44418 13.1064 8.48251 13.2132L8.92741 14.4533C9.00716 14.6756 8.75816 14.8715 8.56088 14.7417L7.32432 13.9281C7.24231 13.8741 7.13606 13.8741 7.05406 13.9281L5.8175 14.7417C5.62022 14.8715 5.37121 14.6756 5.45096 14.4533L5.89587 13.2132C5.9342 13.1064 5.89441 12.9872 5.7996 12.9248L4.66003 12.175C4.45619 12.0409 4.55115 11.7238 4.79516 11.7238H6.25726C6.36103 11.7238 6.45362 11.6587 6.48866 11.561L6.95779 10.2534Z" fill="#FFDA7A"/>
<path d="M14.3851 10.2534C14.463 10.0363 14.77 10.0363 14.8479 10.2534L15.3171 11.561C15.3521 11.6587 15.4447 11.7238 15.5485 11.7238H17.0106C17.2546 11.7238 17.3495 12.0409 17.1457 12.175L16.0061 12.9248C15.9113 12.9872 15.8715 13.1064 15.9098 13.2132L16.3548 14.4533C16.4345 14.6756 16.1855 14.8715 15.9882 14.7417L14.7517 13.9281C14.6697 13.8741 14.5634 13.8741 14.4814 13.9281L13.2448 14.7417C13.0476 14.8715 12.7986 14.6756 12.8783 14.4533L13.3232 13.2132C13.3615 13.1064 13.3218 12.9872 13.2269 12.9248L12.0874 12.175C11.8835 12.0409 11.9785 11.7238 12.2225 11.7238H13.6846C13.7884 11.7238 13.881 11.6587 13.916 11.561L14.3851 10.2534Z" fill="#FFDA7A"/>
<path d="M10.5763 15.4275C10.6542 15.2104 10.9612 15.2104 11.0391 15.4275L11.5082 16.7351C11.5433 16.8327 11.6358 16.8979 11.7396 16.8979H13.2017C13.4457 16.8979 13.5407 17.215 13.3368 17.3491L12.1973 18.0989C12.1025 18.1613 12.0627 18.2805 12.101 18.3873L12.5459 19.6274C12.6257 19.8496 12.3767 20.0456 12.1794 19.9158L10.9428 19.1021C10.8608 19.0482 10.7546 19.0482 10.6726 19.1021L9.436 19.9158C9.23872 20.0456 8.98971 19.8496 9.06946 19.6274L9.51437 18.3873C9.5527 18.2805 9.51291 18.1613 9.4181 18.0989L8.27853 17.3491C8.07469 17.215 8.16965 16.8979 8.41366 16.8979H9.87576C9.97953 16.8979 10.0721 16.8327 10.1072 16.7351L10.5763 15.4275Z" fill="#FFDA7A"/>
<defs>
<linearGradient id="paint0_linear" x1="25.9987" y1="13.575" x2="-5.33734" y2="13.8812" gradientUnits="userSpaceOnUse">
<stop stop-color="#FF7A41"/>
<stop offset="0.513812" stop-color="#FFDA7A"/>
<stop offset="1" stop-color="#F99602"/>
</linearGradient>
<linearGradient id="paint1_linear" x1="-8.28431" y1="3.83062" x2="26.3585" y2="3.04022" gradientUnits="userSpaceOnUse">
<stop stop-color="#F74C02"/>
<stop offset="0.519337" stop-color="#FFDA7A"/>
<stop offset="1" stop-color="#E74804"/>
</linearGradient>
<linearGradient id="paint2_linear" x1="36.6604" y1="6.59013" x2="-16.2203" y2="2.28428" gradientUnits="userSpaceOnUse">
<stop stop-color="#E41A4A"/>
<stop offset="1" stop-color="#F21B4F"/>
</linearGradient>
<linearGradient id="paint3_linear" x1="23.178" y1="12.8453" x2="-30.2966" y2="16.1561" gradientUnits="userSpaceOnUse">
<stop stop-color="#E41A4A"/>
<stop offset="1" stop-color="#FF7D1F"/>
</linearGradient>
</defs>
</svg>
